<svg width="50" height="48" viewBox="0 0 50 48" fill="none" xmlns="http://www.w3.org/2000/svg">
<path fill-rule="evenodd" clip-rule="evenodd" d="M46.1092 21.3507L43.0991 19.6798L23.4375 9.30795L3.77592 19.6798L0.7658 21.3507C0.534134 21.4787 0.340708 21.6679 0.205926 21.8985C0.0711434 22.129 0 22.3923 0 22.6606C0 22.9288 0.0711434 23.1921 0.205926 23.4227C0.340708 23.6532 0.534134 23.8425 0.7658 23.9705L5.86315 26.7999V37.5594L5.85814 37.5645C5.85814 37.8327 5.92929 38.096 6.06407 38.3266C6.19885 38.5571 6.39228 38.7464 6.62394 38.8744L22.7338 47.8167C22.9496 47.937 23.1915 48 23.4375 48C23.6835 48 23.9255 47.937 24.1412 47.8167L40.2511 38.8744C40.4827 38.7464 40.6761 38.5571 40.8109 38.3266C40.9457 38.096 41.0169 37.8327 41.0169 37.5645L41.012 37.5595V26.7999L46.1092 23.9705C46.3409 23.8425 46.5343 23.6532 46.6691 23.4227C46.8039 23.1921 46.875 22.9288 46.875 22.6606C46.875 22.3923 46.8039 22.129 46.6691 21.8985C46.5343 21.6679 46.3409 21.4787 46.1092 21.3507ZM42.3449 22.6606L41.012 23.4003L38.0829 25.026L29.2956 29.9029L26.5003 28.3513L39.5425 21.1702L42.3449 22.6606ZM29.9993 32.9128L38.0829 28.4257V36.8519L30.7888 40.7257L23.4375 44.8068L8.79222 36.868V28.4258L16.8757 32.9128C17.0914 33.0331 17.3334 33.0961 17.5794 33.0961C17.8253 33.0961 18.0673 33.0331 18.283 32.9128L23.4375 30.0517L28.592 32.9128C28.8077 33.0331 29.0497 33.0961 29.2956 33.0961C29.5416 33.0961 29.7836 33.0331 29.9993 32.9128ZM17.5794 29.9029L8.79222 25.0261L5.86315 23.4004L4.53011 22.6606L7.32268 21.1702L20.3743 28.3513L17.5794 29.9029ZM36.4818 19.6798L23.4326 12.4375L10.3833 19.6798L23.4326 26.9222L30.7839 22.8411L36.4818 19.6798Z" fill="#FA541C"/>
<path d="M21.7773 5.58984V18H24.9023V5.58984L32.0312 12.1523L34.1797 9.99609L23.3398 0L12.5 9.99609L14.6484 12.1523L21.7773 5.58984Z" fill="#FA541C"/>
</svg>
