<svg fill="none" xmlns="http://www.w3.org/2000/svg" viewBox="0 43.97 592 385.03"> <g clip-path="url(#clip0_7930_188401)"> <path d="M284.521 77.0854L181.276 43.9819L113.612 244.928L188.275 271.643L215.18 217.257L199.066 128.205L267.903 105.655L284.521 77.0854Z" fill="#FA541C"></path> <path d="M263.874 353.204L205.151 127.467L313.263 96.6026V85.2627H184.929V363.271H313.263V354.97L263.874 353.204Z" fill="#ECECEC"></path> <path d="M182.552 359.004L182.099 267.793L184.928 267.793L185.664 355.228L182.552 359.004Z" fill="#FA541C"></path> <path fill-rule="evenodd" clip-rule="evenodd" d="M329.417 348.154L410.614 428.997L497.287 342.703L416.09 261.86L329.417 348.154ZM410.614 421.246L337.203 348.155L416.09 269.612L489.501 342.703L410.614 421.246Z" fill="#ECECEC"></path> <path fill-rule="evenodd" clip-rule="evenodd" d="M486.353 323.097C486.353 328.936 481.598 333.67 475.733 333.67C469.868 333.67 465.113 328.936 465.113 323.097C465.113 317.257 469.868 312.523 475.733 312.523C481.598 312.523 486.353 317.257 486.353 323.097" fill="#2D2763"></path> <path fill-rule="evenodd" clip-rule="evenodd" d="M581.669 313.813C581.669 321.931 575.06 328.512 566.906 328.512C558.752 328.512 552.142 321.931 552.142 313.813C552.142 305.694 558.752 299.113 566.906 299.113C575.06 299.113 581.669 305.694 581.669 313.813" fill="#2D2763"></path> <rect width="104.382" height="23.7254" transform="matrix(-1 0 0 1 556.544 387.825)" fill="#2E2E2E"></rect> <rect width="104.382" height="24.7567" transform="matrix(-1 0 0 1 545.409 376.479)" fill="#FA541C"></rect> <path d="M31.1626 144.763L59.9128 128.903L32.9109 112.85L31.1626 144.763Z" fill="#FA541C"></path> <path d="M592 284.126C586.254 284.126 583.311 281.384 580.715 278.965C578.344 276.757 576.296 274.849 572.084 274.849C567.872 274.849 565.824 276.757 563.453 278.965C560.857 281.384 557.914 284.126 552.169 284.126C546.422 284.126 543.48 281.384 540.884 278.965C538.513 276.757 536.466 274.849 532.255 274.849C528.044 274.849 525.996 276.757 523.625 278.965C521.029 281.384 518.087 284.126 512.342 284.126C506.596 284.126 503.654 281.384 501.058 278.965C498.687 276.757 496.64 274.849 492.429 274.849V270.981C498.174 270.981 501.116 273.722 503.712 276.141C506.083 278.35 508.131 280.257 512.342 280.257C516.553 280.257 518.6 278.35 520.971 276.141C523.567 273.722 526.509 270.981 532.255 270.981C538.001 270.981 540.943 273.722 543.539 276.141C545.91 278.35 547.957 280.257 552.169 280.257C556.38 280.257 558.428 278.35 560.799 276.141C563.395 273.722 566.338 270.981 572.084 270.981C577.83 270.981 580.773 273.722 583.369 276.141C585.74 278.35 587.788 280.257 592 280.257V284.126Z" fill="#FA541C"></path> <path fill-rule="evenodd" clip-rule="evenodd" d="M15.0722 206.676L0.937965 229.138L1.5909e-05 228.552L14.1343 206.09L15.0722 206.676Z" fill="#2E2E2E"></path> <path fill-rule="evenodd" clip-rule="evenodd" d="M24.5781 207.076L8.15227 233.178L7.21432 232.592L23.6401 206.49L24.5781 207.076Z" fill="#2E2E2E"></path> <path fill-rule="evenodd" clip-rule="evenodd" d="M34.0835 207.475L15.3674 237.219L14.4295 236.633L33.1455 206.889L34.0835 207.475Z" fill="#2E2E2E"></path> <path fill-rule="evenodd" clip-rule="evenodd" d="M16.9746 406.118C16.9746 406.118 25.7667 413.084 36.3134 410.766C46.8604 408.447 67.1205 379.288 87.8458 379.545C108.571 379.803 122.561 385.221 136.292 383.415C150.022 381.609 170.229 374.644 183.701 357.1C197.172 339.557 240.177 327.432 270.229 328.206C300.281 328.98 344.808 312.669 358.538 301.318C372.269 289.966 395.259 257.784 395.259 257.784L421.167 351.199C421.167 351.199 422.045 354.972 421.75 358.358C421.462 361.744 419.029 369.774 413.395 372.773C407.76 375.772 384.931 381.867 384.931 381.867C384.931 381.867 288.526 409.496 285.254 410.835C272.818 415.922 267.25 423.791 267.25 423.791H16.9909L16.9746 406.118Z" fill="#2D2763"></path> <mask id="mask0_7930_188401" style="mask-type:luminance" maskUnits="userSpaceOnUse" x="68" y="271" width="354" height="153"> <path fill-rule="evenodd" clip-rule="evenodd" d="M384.807 271.623C376.958 281.764 366.275 294.78 358.538 301.178C344.805 312.53 300.279 328.841 270.228 328.067C240.177 327.293 197.171 339.418 183.7 356.961C170.228 374.505 150.021 381.47 136.291 383.276C122.56 385.082 108.571 379.664 87.845 379.406C81.339 379.325 74.8778 382.144 68.7495 386.12V423.652H267.249C267.249 423.652 272.818 415.781 285.252 410.696C288.524 409.357 384.932 381.728 384.932 381.728C384.932 381.728 407.762 375.633 413.397 372.634C419.032 369.635 421.46 361.605 421.752 358.219C422.043 354.833 421.169 351.059 421.169 351.059L399.135 271.623H384.807Z" fill="white"></path> </mask> <g mask="url(#mask0_7930_188401)"> <path fill-rule="evenodd" clip-rule="evenodd" d="M145.68 384.332C143.952 386.487 142.225 388.812 140.613 391.219C140.348 391.614 140.089 392.008 139.836 392.4C141.335 394.538 142.635 396.62 143.692 398.615C145.414 401.864 146.443 404.791 146.655 407.33C147.081 412.42 143.749 415.873 139.361 415.94C134.934 416.007 131.704 412.599 132.27 407.317C132.522 404.963 133.34 402.325 134.648 399.449C135.671 397.2 136.974 394.848 138.502 392.432C138.201 392.011 137.892 391.588 137.576 391.163C135.81 388.786 133.917 386.482 132.023 384.339C131.361 383.59 130.746 382.914 130.194 382.324C130.001 382.117 129.83 381.937 129.683 381.783C129.595 381.691 129.535 381.629 129.504 381.597L130.299 380.828C130.332 380.862 130.395 380.927 130.486 381.021C130.636 381.178 130.81 381.362 131.005 381.572C131.564 382.169 132.186 382.853 132.855 383.61C134.768 385.774 136.681 388.102 138.467 390.506C138.697 390.815 138.923 391.124 139.145 391.431C139.324 391.157 139.506 390.882 139.691 390.606C141.321 388.171 143.067 385.821 144.814 383.643C145.425 382.881 145.993 382.194 146.503 381.594C146.681 381.383 146.84 381.199 146.977 381.041C147.06 380.946 147.117 380.881 147.148 380.847L147.977 381.579C147.95 381.61 147.895 381.672 147.815 381.764C147.681 381.918 147.525 382.1 147.349 382.307C146.846 382.899 146.284 383.578 145.68 384.332ZM145.551 407.421C145.353 405.054 144.37 402.259 142.712 399.13C141.74 397.297 140.555 395.382 139.192 393.414C137.796 395.651 136.602 397.827 135.657 399.905C134.394 402.682 133.61 405.212 133.372 407.434C132.878 412.048 135.574 414.894 139.344 414.836C143.105 414.779 145.922 411.86 145.551 407.421Z" fill="#ECECEC"></path> <path fill-rule="evenodd" clip-rule="evenodd" d="M47.9878 376.163V385.115H58.7155V391.438H68.5838L68.803 398.851H84.132L83.9016 376.163H47.9878ZM59.8242 384.012H49.0965V377.267H82.8045L83.0125 397.748H69.8795L69.6603 390.335H59.8242V384.012Z" fill="#ECECEC"></path> <path fill-rule="evenodd" clip-rule="evenodd" d="M377.941 286.604C376.214 288.759 374.486 291.084 372.874 293.491C372.61 293.886 372.351 294.28 372.097 294.672C373.596 296.81 374.897 298.892 375.954 300.887C377.676 304.136 378.704 307.063 378.917 309.602C379.343 314.692 376.01 318.145 371.623 318.212C367.195 318.279 363.966 314.871 364.532 309.589C364.784 307.235 365.601 304.597 366.909 301.721C367.932 299.472 369.235 297.12 370.763 294.704C370.462 294.283 370.154 293.86 369.838 293.435C368.072 291.058 366.178 288.754 364.285 286.611C363.622 285.862 363.007 285.186 362.456 284.596C362.263 284.389 362.092 284.209 361.945 284.055C361.857 283.963 361.797 283.9 361.766 283.869L362.561 283.1C362.594 283.134 362.657 283.199 362.747 283.293C362.897 283.45 363.071 283.634 363.267 283.844C363.825 284.441 364.447 285.125 365.117 285.882C367.03 288.046 368.943 290.374 370.729 292.778C370.959 293.087 371.185 293.395 371.407 293.703C371.586 293.429 371.768 293.154 371.952 292.878C373.583 290.443 375.329 288.093 377.075 285.915C377.686 285.153 378.254 284.466 378.764 283.866C378.943 283.655 379.101 283.47 379.239 283.313C379.321 283.218 379.379 283.153 379.409 283.119L380.239 283.851C380.211 283.882 380.156 283.944 380.076 284.036C379.942 284.19 379.786 284.371 379.61 284.578C379.107 285.171 378.546 285.85 377.941 286.604ZM377.812 309.693C377.614 307.326 376.631 304.531 374.973 301.402C374.002 299.569 372.816 297.654 371.454 295.686C370.058 297.923 368.864 300.099 367.919 302.177C366.656 304.954 365.872 307.484 365.634 309.706C365.139 314.32 367.835 317.166 371.605 317.108C375.366 317.051 378.183 314.132 377.812 309.693Z" fill="#ECECEC"></path> <path d="M280.248 287.389V278.436H316.161L316.392 301.125H301.063L300.844 293.712H290.976V287.389H280.248Z" fill="#ECECEC"></path> <path d="M281.356 286.285H292.084V292.608H301.92L302.139 300.02H315.272L315.064 279.54H281.356L281.356 286.285Z" fill="#ECECEC"></path> <path fill-rule="evenodd" clip-rule="evenodd" d="M260.652 330.212H297.666V347.885H260.652V330.212ZM261.76 346.782H296.557V331.316H261.76V346.782Z" fill="#ECECEC"></path> <path fill-rule="evenodd" clip-rule="evenodd" d="M407.542 345.678H389.794V382.538H407.542V345.678ZM406.434 381.434H390.903V346.782H406.434V381.434Z" fill="#ECECEC"></path> <path fill-rule="evenodd" clip-rule="evenodd" d="M328.495 362.927C331.641 361.48 335.067 360.719 338.595 360.719C351.917 360.719 362.718 371.475 362.718 384.742C362.718 397.928 352.043 408.643 338.811 408.76L336.235 408.782L338.574 407.707C346.663 403.987 351.953 395.92 351.953 386.894C351.953 374.236 341.649 363.975 328.938 363.975C328.919 363.975 328.899 363.975 328.866 363.977L328.847 363.977C328.792 363.979 328.765 363.98 328.73 363.98L326.174 363.994L328.495 362.927ZM331.344 362.989C343.537 364.191 353.062 374.435 353.062 386.894C353.062 395.467 348.508 403.215 341.343 407.495C352.765 406.141 361.609 396.465 361.609 384.742C361.609 372.084 351.305 361.823 338.594 361.823C336.1 361.823 333.661 362.221 331.344 362.989Z" fill="#C8C4FF"></path> <path fill-rule="evenodd" clip-rule="evenodd" d="M236.969 354.474L235.079 356.236C232.549 358.594 229.537 360.387 226.187 361.491C213.538 365.659 199.892 358.827 195.706 346.232C191.547 333.713 198.301 320.201 210.826 315.951L213.265 315.124L211.384 316.876C204.877 322.939 202.4 332.253 205.247 340.821C209.24 352.838 222.26 359.356 234.325 355.381C234.347 355.373 234.368 355.366 234.414 355.349L234.417 355.348C234.452 355.335 234.475 355.327 234.496 355.319C234.504 355.316 234.512 355.314 234.52 355.311L236.969 354.474ZM232.354 357.07C220.399 359.743 208.125 352.997 204.195 341.169C201.491 333.03 203.37 324.249 208.821 317.945C198.405 322.802 193.061 334.756 196.759 345.886C200.752 357.902 213.771 364.421 225.839 360.444C228.207 359.664 230.397 358.523 232.354 357.07Z" fill="#C8C4FF"></path> <path fill-rule="evenodd" clip-rule="evenodd" d="M249.046 378.221H260.007V418.569H249.046V378.221ZM250.154 417.466H258.898V379.325H250.154V417.466Z" fill="#C8C4FF"></path> <path fill-rule="evenodd" clip-rule="evenodd" d="M258.9 378.221H269.86V418.569H258.9V378.221ZM260.008 417.466H268.752V379.325H260.008V417.466Z" fill="#C8C4FF"></path> <path fill-rule="evenodd" clip-rule="evenodd" d="M268.75 378.221H279.71V418.569H268.75V378.221ZM269.858 417.466H278.602V379.325H269.858V417.466Z" fill="#C8C4FF"></path> <path fill-rule="evenodd" clip-rule="evenodd" d="M278.603 378.221H289.563V418.569H278.603V378.221ZM279.711 417.466H288.455V379.325H279.711V417.466Z" fill="#C8C4FF"></path> <path fill-rule="evenodd" clip-rule="evenodd" d="M289.564 378.221H249.047V389.137H289.564V378.221ZM288.456 388.033H250.156V379.325H288.456V388.033Z" fill="#C8C4FF"></path> <path fill-rule="evenodd" clip-rule="evenodd" d="M289.564 388.033H249.047V398.948H289.564V388.033ZM288.456 397.844H250.156V389.137H288.456V397.844Z" fill="#C8C4FF"></path> <path fill-rule="evenodd" clip-rule="evenodd" d="M289.564 397.844H249.047V408.759H289.564V397.844ZM288.456 407.655H250.156V398.948H288.456V407.655Z" fill="#C8C4FF"></path> <path fill-rule="evenodd" clip-rule="evenodd" d="M289.564 407.655H249.047V418.57H289.564V407.655ZM288.456 417.466H250.156V408.759H288.456V417.466Z" fill="#C8C4FF"></path> <path d="M120.663 340.929V331.976H156.577L156.807 354.664H141.478L141.259 347.252H131.391V340.929H120.663Z" fill="#C8C4FF"></path> <path d="M121.771 339.826H132.499V346.148H142.335L142.554 353.561H155.687L155.479 333.081H121.771L121.771 339.826Z" fill="#C8C4FF"></path> <path fill-rule="evenodd" clip-rule="evenodd" d="M175.281 247.951H157.534V284.811H175.281V247.951ZM174.173 283.707H158.642V249.055H174.173V283.707Z" fill="#C8C4FF"></path> <path d="M106.333 262.99C102.805 262.99 99.3794 263.751 96.2325 265.198L93.8813 266.279L96.471 266.251C96.5031 266.251 96.5291 266.25 96.5787 266.248L96.5891 266.248C96.6312 266.246 96.6541 266.246 96.6767 266.246C109.387 266.246 119.692 276.507 119.692 289.165C119.692 298.19 114.401 306.258 106.312 309.978L103.973 311.053L106.549 311.031C119.781 310.914 130.456 300.199 130.456 287.013C130.456 273.746 119.656 262.99 106.333 262.99Z" fill="#C8C4FF"></path> <path d="M120.8 289.165C120.8 276.706 111.276 266.462 99.082 265.26C101.4 264.493 103.839 264.094 106.333 264.094C119.044 264.094 129.348 274.356 129.348 287.014C129.348 298.737 120.503 308.413 109.082 309.766C116.246 305.487 120.8 297.738 120.8 289.165Z" fill="#C8C4FF"></path> </g> <path fill-rule="evenodd" clip-rule="evenodd" d="M267.25 424.058H16.707V405.469H17.2414V423.526H267.25V424.058Z" fill="#2E2E2E"></path> <path fill-rule="evenodd" clip-rule="evenodd" d="M336.261 112.921L216.213 134.777L221.632 164.275L341.68 142.419L336.261 112.921Z" fill="#2E2E2E"></path> <path d="M338.852 111.115L218.804 132.971L224.223 162.469L344.27 140.613L338.852 111.115Z" fill="#ECECEC"></path> <path fill-rule="evenodd" clip-rule="evenodd" d="M309.697 96.9783L310.352 99.1022C312.165 104.425 308.417 106.936 302.992 108.49L249.981 121.415C244.848 122.885 240.196 123.273 238.557 118.214L237.612 115.296" fill="#2E2E2E"></path> <path fill-rule="evenodd" clip-rule="evenodd" d="M282.024 409.194C276.68 408.613 269.101 408.033 264.632 395.844C260.162 383.656 194.819 149.948 194.819 149.948C194.819 149.948 193.597 144.715 196.131 137.76C199.337 128.957 208.6 127.152 216.179 124.25C216.179 124.25 206.916 132.246 212.357 148.497C215.885 159.034 244.252 258.561 264.504 328.402" fill="#2E2E2E"></path> <mask id="mask1_7930_188401" style="mask-type:luminance" maskUnits="userSpaceOnUse" x="240" y="326" width="74" height="90"> <path fill-rule="evenodd" clip-rule="evenodd" d="M240.339 330.742L264.825 415.867L313.407 411.223L281.926 326.872L240.339 330.742Z" fill="white"></path> </mask> <g mask="url(#mask1_7930_188401)"> <path d="M210.413 125.279C210.413 125.279 206.915 132.244 212.356 148.495C217.797 164.747 279.108 383.267 286.978 400.099C289.117 404.673 295.82 406.967 295.82 406.967C295.82 406.967 287.367 409.772 282.023 409.192C276.679 408.612 269.1 408.031 264.63 395.843C260.161 383.654 195.546 151.301 195.546 151.301C195.546 151.301 192.923 144.433 196.129 137.758C199.336 131.083 202.834 128.181 210.413 125.279" fill="#ECECEC"></path> </g> <path d="M302.957 253.943L206.628 283.03L215.032 310.616L311.361 281.528L302.957 253.943Z" fill="#2D2763"></path> <path d="M307.89 231.756L236.155 211.533L258.216 134.374L363.154 163.491L346.989 220.774" fill="#ECECEC"></path> <path fill-rule="evenodd" clip-rule="evenodd" d="M307.785 232.128L235.675 211.8L257.949 133.898L258.321 134.002L363.634 163.222L363.529 163.596L347.364 220.879L346.615 220.67L362.675 163.76L258.485 134.85L236.636 211.267L307.996 231.384L307.785 232.128Z" fill="#4D41CB"></path> <path fill-rule="evenodd" clip-rule="evenodd" d="M363.527 163.617L257.854 134.282L259.231 128.916L365.137 157.687L363.527 163.617Z" fill="#4D41CB"></path> <path d="M301.173 185.673L328.109 186.848C327.457 201.658 314.869 213.137 299.993 212.489C285.117 211.84 273.586 199.308 274.238 184.498C274.89 169.688 287.477 158.208 302.353 158.857C308.304 159.116 313.299 160.977 317.96 164.669L301.173 185.673Z" fill="#C8C4FF"></path> <path fill-rule="evenodd" clip-rule="evenodd" d="M301.173 185.673L317.96 164.669C324.951 170.207 328.5 177.962 328.109 186.848L301.173 185.673Z" fill="#4D41CB"></path> <path fill-rule="evenodd" clip-rule="evenodd" d="M208.374 283.87L301.728 255.681L309.229 280.304L215.876 308.493L208.374 283.87ZM316.118 290.763L313.107 282.367L303.8 251.819L204.495 281.806L213.802 312.353L304.409 284.993L316.118 290.763Z" fill="#2D2763"></path> <path fill-rule="evenodd" clip-rule="evenodd" d="M295.406 407.225L295.261 406.713L406.915 375.389C417.379 372.451 423.492 361.587 420.542 351.169L396.376 264.232L396.891 264.09L421.057 351.026C424.087 361.725 417.808 372.884 407.06 375.901L295.406 407.225Z" fill="#2E2E2E"></path> <path d="M298.434 266.073L298.224 265.333L238.167 282.27L238.377 283.009L298.434 266.073Z" fill="#FAFAFA"></path> <path d="M301.027 273.934L300.811 273.188L260.771 284.658L260.987 285.404L301.027 273.934Z" fill="#FAFAFA"></path> <path fill-rule="evenodd" clip-rule="evenodd" d="M382.923 216.283L366.551 158.353L365.809 158.561L382.181 216.491L382.923 216.283Z" fill="#2E2E2E"></path> <path fill-rule="evenodd" clip-rule="evenodd" d="M365.99 158.511L351.371 107.007C348.425 96.6023 337.523 90.5236 327.073 93.4573L307.698 97.9659L307.565 97.4005L326.928 92.8955C337.676 89.8789 348.898 96.1368 351.932 106.849L366.551 158.353L365.99 158.511Z" fill="#2E2E2E"></path> <path fill-rule="evenodd" clip-rule="evenodd" d="M420.538 350.253C420.538 350.253 419.566 358.475 414.417 360.99C409.267 363.505 286.548 398.91 286.548 398.91L275.026 407.806C283.527 412.381 297.687 406.777 297.687 406.777L409.85 374.726C409.85 374.726 419.469 370.083 421.024 360.797C422.578 351.51 420.538 350.253 420.538 350.253" fill="#2E2E2E"></path> <path d="M536.167 172.549C536.167 215.967 500.863 251.165 457.313 251.165C413.764 251.165 378.46 215.967 378.46 172.549C378.46 129.131 413.764 93.9336 457.313 93.9336C500.863 93.9336 536.167 129.131 536.167 172.549" fill="#FA541C"></path> <path fill-rule="evenodd" clip-rule="evenodd" d="M196.343 138.228L195.843 138.04C196.556 136.149 197.545 134.38 198.784 132.781L199.207 133.106C198.001 134.664 197.037 136.386 196.343 138.228" fill="#2E2E2E"></path> <path d="M382.927 216.407C382.927 216.407 361.077 210.017 355.444 213.115C349.812 216.213 351.463 221.925 358.261 224.636C365.058 227.347 362.103 226.738 362.103 226.738L353.266 226.641C348.177 221.793 346.239 218.922 338.353 209.823C331.306 201.693 323.107 205.176 328.448 219.892L328.739 220.86C328.739 220.86 321.456 211.76 317.863 213.212C314.27 214.664 314.464 220.86 314.852 223.087C314.852 223.087 312.474 221.307 310.343 221.865C307.656 222.567 305.408 226.397 309.307 235.613C317.139 254.122 320.73 258.109 324.133 260.204C332.937 265.626 373.594 264.367 387.772 264.464C401.95 264.561 492.77 264.403 499.449 264.399C510.904 264.393 532.596 264.335 534.797 263.173C544.994 260.559 547.939 246.972 545.414 239.033C542.889 231.094 532.379 219.021 526.65 208.952L463.13 208.504L472.905 220.251L400.309 220.376C400.309 220.376 388.559 218.343 382.927 216.407" fill="#FFD6E7"></path> <path d="M358.572 105.04L340.315 89.4842C340.315 89.4842 329.318 92.7706 325.17 93.6381C314.17 95.9369 298.361 99.5482 292.99 101.167C287.422 102.845 255.48 110.993 235.824 115.754C227.468 117.778 220.944 122.979 220.944 122.979C220.944 122.979 209.194 132.371 199.483 132.855L198.706 132.952C198.706 132.952 196.764 135.856 196.278 137.115C195.793 138.373 195.501 144.763 192.102 147.184C188.704 149.604 185.402 149.895 185.402 149.895C185.402 149.895 171.861 118.304 179.047 108.331C186.233 98.3592 213.327 91.582 213.327 91.582L237.119 85.0953C237.119 85.0953 298.45 69.6727 308.453 67.3491C320.198 64.6204 346.465 55.1788 360.158 56.9215C369.018 58.0493 387.973 70.6982 387.973 70.6982L365.056 104.681L358.572 105.04Z" fill="#FFD6E7"></path> <path d="M424.673 220.122L405.357 147.667L384.77 124.915L377.736 121.304L358.573 105.039L382.634 67.696L396.035 75.3446L414.291 87.4467C414.291 87.4467 447.04 112.623 461.704 127.629C476.367 142.636 487.988 156.029 501.972 173.844C517.348 193.432 526.648 208.952 526.648 208.952L463.517 208.956L472.904 220.251L424.673 220.122Z" fill="#ECECEC"></path> <path d="M392.44 124.183C390.231 131.857 384.937 137.076 380.615 135.839C376.294 134.603 374.581 127.379 376.79 119.705C378.998 112.031 384.293 106.812 388.614 108.049C392.936 109.285 394.649 116.509 392.44 124.183" fill="#FFD6E7"></path> <path d="M392.831 116.008L423.129 132.144C423.129 132.144 420.281 151.637 411.088 155.38L384.933 128.659L392.831 116.008Z" fill="#FFD6E7"></path> <path fill-rule="evenodd" clip-rule="evenodd" d="M378.335 115.664C380.961 110.297 385.106 107.045 388.608 108.047C392.118 109.051 393.904 114.02 393.262 119.977L378.335 115.664Z" fill="#2E2E2E"></path> <path fill-rule="evenodd" clip-rule="evenodd" d="M185.795 150.004C185.554 150.004 185.407 149.992 185.378 149.989L185.206 149.974L185.137 149.818C185.102 149.739 181.633 141.886 179.089 132.927C175.656 120.835 175.454 112.589 178.489 108.418C185.793 98.3813 206.349 92.9018 230.151 86.5564L230.301 87.1175C207.592 93.1713 186.143 98.8893 178.961 108.759C172.221 118.022 184.532 146.961 185.598 149.418C186.349 149.44 189.47 149.351 192.068 146.944C194.738 144.47 196.057 140.382 195.988 134.794L195.924 132.799L196.506 132.78L196.571 134.781C196.641 140.552 195.257 144.787 192.457 147.377C189.873 149.766 186.883 150.004 185.795 150.004" fill="#2E2E2E"></path> <path fill-rule="evenodd" clip-rule="evenodd" d="M338.669 59.6231L338.53 59.0589C346.577 57.092 356.638 55.0954 363.062 57.1279L362.886 57.6812C356.601 55.6923 346.642 57.6749 338.669 59.6231" fill="#2E2E2E"></path> <path fill-rule="evenodd" clip-rule="evenodd" d="M197.979 133.324C194.308 133.324 191.703 132.117 190.209 129.716C188.43 126.857 188.9 123.135 191.352 120.666C197.365 114.612 211.95 100.07 212.097 99.9243L212.509 100.335C212.362 100.481 197.779 115.022 191.766 121.075C189.541 123.316 189.093 126.821 190.704 129.409C192.542 132.364 196.262 133.361 201.764 132.374C204.953 131.802 208.831 130.186 213.289 127.571L213.585 128.072C209.067 130.721 205.125 132.362 201.867 132.946C200.461 133.198 199.164 133.324 197.979 133.324" fill="#2E2E2E"></path> <path fill-rule="evenodd" clip-rule="evenodd" d="M325.208 244.184C325.175 244.143 321.881 240.084 318.953 234.81C315.001 227.693 313.558 221.868 314.664 217.498C315.323 214.896 316.439 213.39 317.983 213.02C321.524 212.166 326.273 217.589 328.556 220.192C328.779 220.446 328.978 220.672 329.148 220.86L328.713 221.248C328.542 221.058 328.342 220.831 328.118 220.574C325.91 218.057 321.31 212.823 318.119 213.585C316.803 213.9 315.83 215.265 315.229 217.64C312.673 227.741 325.53 243.657 325.661 243.817L325.208 244.184Z" fill="#2E2E2E"></path> <path fill-rule="evenodd" clip-rule="evenodd" d="M362.949 226.987C359.447 225.716 353.382 223.016 352.106 219.221C351.635 217.819 351.859 216.396 352.772 214.99C356.435 209.354 370.892 213.108 383.648 216.421C390.713 218.256 397.39 219.99 401.545 219.99C401.585 219.99 401.626 219.99 401.666 219.99C412.536 219.899 465.786 219.953 472.264 219.96C470.383 217.793 462.535 208.616 454.997 197.792C443.424 181.177 438.05 168.807 439.026 161.025C441.354 142.458 457.707 137.723 457.872 137.677L458.028 138.237C457.867 138.281 441.883 142.924 439.604 161.096C438.412 170.607 447.575 186.119 455.472 197.457C464.052 209.775 473.033 219.958 473.123 220.059L473.551 220.542L472.904 220.542C472.309 220.541 413.19 220.475 401.671 220.571C401.63 220.571 401.588 220.571 401.546 220.571C397.316 220.571 390.604 218.828 383.501 216.983C370.937 213.72 356.695 210.021 353.261 215.307C352.449 216.556 352.246 217.811 352.658 219.036C353.857 222.601 359.745 225.205 363.149 226.441L362.949 226.987Z" fill="#2E2E2E"></path> <path fill-rule="evenodd" clip-rule="evenodd" d="M337.938 235.96C337.46 235.404 326.247 222.23 326.441 211.688C326.44 207.287 328.145 205.749 329.575 205.235C332.322 204.25 335.962 206.319 337.995 208.767C338.252 209.077 338.555 209.444 338.901 209.863C341.702 213.257 347.517 220.3 353.102 226.064L377.844 226.932L377.824 227.513L352.846 226.637L352.765 226.553C347.139 220.756 341.271 213.648 338.451 210.232C338.106 209.814 337.802 209.447 337.546 209.138C335.305 206.438 331.962 204.996 329.773 205.781C327.974 206.428 327.023 208.472 327.024 211.694C326.925 217.081 330.013 223.283 332.621 227.538C335.457 232.165 338.351 235.548 338.38 235.582L337.938 235.96Z" fill="#2E2E2E"></path> <path fill-rule="evenodd" clip-rule="evenodd" d="M424.956 220.048L408.943 159.888L408.198 160.085L424.211 220.245L424.956 220.048Z" fill="#2E2E2E"></path> <path fill-rule="evenodd" clip-rule="evenodd" d="M381.788 136.197C380.791 136.197 380.155 135.946 380.11 135.928L380.312 135.434C380.328 135.442 382.008 136.094 384.193 135.144C386.863 133.984 389.114 131.054 390.887 126.437L391.386 126.628C389.556 131.394 387.202 134.427 384.389 135.641C383.393 136.07 382.499 136.197 381.788 136.197" fill="#2E2E2E"></path> <path fill-rule="evenodd" clip-rule="evenodd" d="M394.537 138.538L388.225 132.051C389.319 129.99 390.415 127.849 391.171 125.661L394.537 138.538Z" fill="#2E2E2E"></path> <path fill-rule="evenodd" clip-rule="evenodd" d="M357.74 264.622C341.359 264.49 331.354 263.884 325.4 261.064C319.674 258.353 317.411 253.598 313.661 245.72C312.682 243.665 311.573 241.335 310.277 238.777C306.67 231.662 306.066 224.544 308.871 222.219C310.356 220.988 312.543 221.353 315.029 223.244L314.675 223.706C312.427 221.995 310.499 221.627 309.243 222.666C306.387 225.033 307.79 232.583 310.796 238.516C312.096 241.08 313.207 243.413 314.187 245.472C321.734 261.324 322.893 263.76 357.745 264.041L357.74 264.622Z" fill="#2E2E2E"></path> <path fill-rule="evenodd" clip-rule="evenodd" d="M351.711 236.385L351.253 235.767L327.341 253.365L327.799 253.984L351.711 236.385Z" fill="#2E2E2E"></path> <path fill-rule="evenodd" clip-rule="evenodd" d="M200.067 112.329L197.267 113.057C193.729 113.977 191.38 117.316 191.716 120.946" fill="#2E2E2E"></path> <path fill-rule="evenodd" clip-rule="evenodd" d="M227.148 118.462L226.785 118.007C234.354 112.007 239.237 107.044 239.285 106.994L239.702 107.401C239.653 107.45 234.748 112.437 227.148 118.462" fill="#2E2E2E"></path> <path fill-rule="evenodd" clip-rule="evenodd" d="M529.237 264.303L529.218 263.722C535.072 263.54 539.712 261.197 542.638 256.946C546.446 251.415 546.745 243.699 545.073 238.936L545.623 238.744C547.343 243.645 547.036 251.584 543.119 257.275C540.084 261.684 535.283 264.115 529.237 264.303" fill="#2E2E2E"></path> <path fill-rule="evenodd" clip-rule="evenodd" d="M451.226 191.942L467.934 220.246L473.669 220.57L451.226 191.942Z" fill="#2E2E2E"></path> <path fill-rule="evenodd" clip-rule="evenodd" d="M127.246 151.658C118.565 151.426 94.979 154.495 78.7808 172.42C66.083 186.471 41.0294 214.786 32.0558 232.646C31.2783 234.194 28.8276 240.326 29.3345 245.671C30.6302 259.34 45.8565 264.756 88.3053 258.692L170.203 257.531C170.203 257.531 169.998 238.449 168.184 212.916C168.184 212.916 180.349 224.602 181.272 225.489C182.212 226.392 184.382 231.228 196.628 231.228C204.317 231.228 212.486 209.096 218.366 192.025C222.361 180.424 225.341 170.744 225.341 170.744L198.128 158.622C198.128 158.622 189.835 180.673 189.317 180.931C188.798 181.189 170.841 152.822 127.246 151.658" fill="#4D41CB"></path> <path d="M127.44 136.731L120.702 154.299C120.134 155.78 120.975 157.238 122.371 158.001C125.062 159.47 131.11 160.672 136.92 157.862C137.759 157.456 138.055 156.3 137.928 155.38L135.215 135.764L127.44 136.731Z" fill="#ECECEC"></path> <mask id="mask2_7930_188401" style="mask-type:luminance" maskUnits="userSpaceOnUse" x="121" y="126" width="16" height="21"> <path fill-rule="evenodd" clip-rule="evenodd" d="M123.91 127.236C123.91 127.236 121.76 134.889 121.76 134.986C121.76 135.083 128.71 146.64 128.71 146.64L136.436 144.271L135.95 142.191L126.28 126.934L123.91 127.236Z" fill="white"></path> </mask> <g mask="url(#mask2_7930_188401)"> <path fill-rule="evenodd" clip-rule="evenodd" d="M130.023 118.956C129.738 118.956 129.457 118.987 129.18 119.049C127.414 119.449 126.036 121.108 125.3 123.72C124.552 126.374 124.552 129.697 125.298 133.077C126.044 136.454 127.44 139.451 129.229 141.517C130.988 143.549 132.932 144.448 134.7 144.048C136.475 143.646 137.873 141.986 138.637 139.374C139.418 136.707 139.438 133.386 138.695 130.021C137.952 126.655 136.537 123.658 134.709 121.581C133.198 119.864 131.563 118.956 130.023 118.956M133.86 144.682C132.173 144.682 130.418 143.711 128.827 141.874C126.979 139.741 125.54 136.658 124.776 133.195C124.01 129.729 124.014 126.311 124.785 123.571C125.577 120.76 127.096 118.966 129.063 118.521C131.037 118.074 133.183 119.033 135.108 121.221C136.995 123.366 138.454 126.449 139.217 129.902C139.979 133.356 139.956 136.774 139.15 139.528C138.328 142.337 136.789 144.13 134.816 144.575C134.501 144.647 134.182 144.682 133.86 144.682" fill="#2E2E2E"></path> </g> <path d="M136.691 239.049L85.1142 245.667L91.2211 225.679L73.9866 227.098L66.8735 172.139L127.021 164.421L136.691 239.049Z" fill="#C8C4FF"></path> <path d="M127.216 164.421L117.921 165.614L127.591 240.242L136.886 239.049L127.216 164.421Z" fill="#ECECEC"></path> <path d="M255.891 122.675C253.558 117.291 247.079 118.819 247.079 118.819C243.904 114.519 238.235 115.163 231.334 116.807C227.233 117.785 223.989 119.377 222.033 120.508C219.554 121.422 217.566 122.191 217.566 122.191C217.566 122.191 214.262 125.415 209.078 135.152C203.895 144.888 197.545 160.685 197.545 160.685L225.341 170.744C227.343 167.411 229.348 149.663 225.266 143.183C225.266 143.183 234.143 135.735 235.665 131.158C235.665 131.158 240.104 130.803 243.667 129.932L255.395 127.546C257.209 126.225 255.891 122.675 255.891 122.675" fill="#ECECEC"></path> <path d="M139.397 129.943C140.953 136.873 138.837 142.933 134.962 143.795C131.087 144.657 126.921 139.994 125.364 133.063C123.808 126.133 125.688 119.816 129.563 118.954C133.438 118.092 137.841 123.012 139.397 129.943" fill="#ECECEC"></path> <path d="M124.458 127.164L137.733 125.149C137.733 125.149 140.808 115.554 143.114 108.91C143.114 108.91 118.692 112.262 114.708 112.648C114.708 112.648 121.761 122.324 124.458 127.164" fill="#FA541C"></path> <path fill-rule="evenodd" clip-rule="evenodd" d="M126.79 138.096L120.515 154.458C120.333 154.934 120.297 155.407 120.376 155.855L130.174 142.955L126.79 138.096Z" fill="#2E2E2E"></path> <path fill-rule="evenodd" clip-rule="evenodd" d="M166.345 189.389L189.404 230.519C189.404 230.519 184.933 229.793 178.032 222.588C173.409 217.76 168.022 212.384 168.022 212.384L166.345 189.389" fill="#2E2E2E"></path> <path d="M222 181.563L193.663 170.469L192.809 172.63L221.145 183.723L222 181.563Z" fill="#C8C4FF"></path> <path fill-rule="evenodd" clip-rule="evenodd" d="M189.073 183.221L188.523 183.026C188.574 182.885 193.651 168.729 199.803 154.173C208.085 134.578 214.278 123.622 218.21 121.611C225.141 118.067 238.536 112.835 244.778 115.704C246.407 116.454 247.44 117.714 247.848 119.449C248.324 121.47 248.014 123.263 246.926 124.779C244.141 128.658 237.281 129.386 236.99 129.415L236.932 128.838C237 128.831 243.822 128.106 246.453 124.44C247.437 123.067 247.716 121.432 247.28 119.582C246.915 118.029 245.991 116.902 244.533 116.231C239.278 113.814 227.342 117.593 218.476 122.127C209.355 126.792 189.275 182.657 189.073 183.221" fill="#2E2E2E"></path> <path d="M67.623 260.697L64.9442 227.745L62.6188 227.933L65.2977 260.884L67.623 260.697Z" fill="#C8C4FF"></path> <path fill-rule="evenodd" clip-rule="evenodd" d="M222.145 145.959L221.798 145.493C232.323 137.735 237.42 129.341 237.701 124.825C237.812 123.055 237.291 121.611 236.154 120.532C235.439 119.853 234.587 119.576 233.545 119.68C227.546 120.291 218.287 133.507 218.194 133.641L217.715 133.311C217.738 133.277 220.101 129.893 223.192 126.476C227.377 121.853 230.84 119.373 233.486 119.103C234.69 118.981 235.723 119.321 236.557 120.112C237.824 121.315 238.405 122.912 238.283 124.861C237.994 129.507 232.82 138.09 222.145 145.959" fill="#2E2E2E"></path> <path fill-rule="evenodd" clip-rule="evenodd" d="M235.907 131.54L235.812 130.968C235.962 130.943 250.771 128.512 253.581 127.876C254.785 127.604 256.196 126.954 256.076 125.409C255.921 122.953 255.09 121.162 253.606 120.081C250.99 118.176 247.187 119.091 247.15 119.1L247.009 118.537C247.175 118.496 251.117 117.549 253.95 119.612C255.581 120.8 256.492 122.737 256.657 125.368C256.726 126.249 256.434 127.826 253.71 128.442C250.883 129.081 236.057 131.516 235.907 131.54" fill="#2E2E2E"></path> <path d="M104.364 213.738L84.034 216.236L80.0617 183.496L112.961 179.543L116.682 210.339" fill="#ECECEC"></path> <path fill-rule="evenodd" clip-rule="evenodd" d="M83.6945 216.667L79.6289 183.158L113.3 179.113L117.067 210.292L116.295 210.385L112.621 179.973L80.4939 183.834L84.3729 215.805L104.316 213.354L104.411 214.122L83.6945 216.667Z" fill="#2D2763"></path> <path fill-rule="evenodd" clip-rule="evenodd" d="M169.553 233.211L167.026 190.752L166.256 190.797L168.783 233.256L169.553 233.211Z" fill="#2E2E2E"></path> <path fill-rule="evenodd" clip-rule="evenodd" d="M113.266 179.781L112.656 179.305L83.7294 215.999L84.3399 216.475L113.266 179.781Z" fill="#2D2763"></path> <path fill-rule="evenodd" clip-rule="evenodd" d="M112.283 208.333L80.3027 183.193L79.8206 183.8L111.801 208.94L112.283 208.333Z" fill="#2D2763"></path> <path fill-rule="evenodd" clip-rule="evenodd" d="M82.3448 257.533H170.203L179.294 412.502L150.88 412.242L138.209 283.622L109.946 283.26L76.131 410.414L47.4165 403.741C47.4165 403.741 77.4854 275.522 82.3448 257.533" fill="#2E2E2E"></path> <path d="M44.8359 414.281L47.4161 403.739L76.1306 410.413C78.1824 414.789 81.9183 417.461 86.2479 419.641L88.9738 421.014L88.3277 423.373L44.8359 414.281Z" fill="#ECECEC"></path> <path fill-rule="evenodd" clip-rule="evenodd" d="M88.7993 421.587L45.4545 411.804L45.2824 412.559L88.6273 422.342L88.7993 421.587Z" fill="#2D2763"></path> <path d="M150.88 423.269V412.239L179.294 412.499C179.294 412.499 187.541 418.511 192.24 419.713L195.199 420.47V423.269H150.88Z" fill="#ECECEC"></path> <rect width="44.319" height="0.773743" transform="matrix(-1 0 0 1 195.2 420.9)" fill="#2D2763"></rect> <path d="M78.7871 226.44L82.3345 259.34C82.3345 259.34 108.78 258.66 133.66 249.472C133.66 249.472 147.062 244.962 143.563 237.998C142.017 235.567 140.319 235.416 139.028 235.483C139.028 235.483 142.897 232.212 141.446 228.457C139.502 223.428 133.526 226.064 133.526 226.064C133.526 226.064 139.125 223.426 136.695 218.784C134.265 214.141 121.447 218.78 115.129 221.972C108.812 225.163 109.677 224.264 109.677 224.264C109.677 224.264 114.358 219.839 117.274 213.843C117.954 205.428 109.298 209.237 107.451 210.753C105.605 212.268 101.588 215.556 95.6271 221.359C95.6271 221.359 90.1142 225.481 87.2363 225.744C81.4598 226.271 78.7871 226.44 78.7871 226.44" fill="#ECECEC"></path> <path fill-rule="evenodd" clip-rule="evenodd" d="M121.015 243.124C120.895 243.124 120.782 243.049 120.74 242.93C120.687 242.778 120.767 242.613 120.919 242.56C121.04 242.518 133.107 238.309 137.086 236.383C141.378 234.305 142.164 230.751 141.077 228.327C139.735 225.336 136.511 225.033 134.084 226.016C133.934 226.077 133.764 226.005 133.704 225.857C133.643 225.708 133.715 225.539 133.864 225.479C137.686 223.93 140.558 225.747 141.61 228.091C142.807 230.761 141.982 234.658 137.341 236.905C133.332 238.845 121.233 243.065 121.112 243.108C121.08 243.118 121.047 243.124 121.015 243.124" fill="#2E2E2E"></path> <path fill-rule="evenodd" clip-rule="evenodd" d="M115.851 249.065L109.631 229.528L108.896 229.76L115.116 249.297L115.851 249.065Z" fill="#2E2E2E"></path> <path fill-rule="evenodd" clip-rule="evenodd" d="M116.998 233.581C116.881 233.581 116.771 233.511 116.726 233.396C116.668 233.246 116.743 233.078 116.893 233.021C117.365 232.839 117.931 232.626 118.57 232.386C123.965 230.36 136.597 225.615 137.185 222.025C137.432 220.515 137.086 219.269 136.186 218.42C134.799 217.113 132.13 216.772 128.863 217.484C123.35 218.686 109.8 224.535 109.663 224.595C109.533 224.65 109.382 224.607 109.305 224.489C109.226 224.373 109.243 224.217 109.345 224.12C109.375 224.09 112.469 221.097 115.975 215.661C117.122 213.883 117.499 211.397 115.758 209.85C114.359 208.608 111.503 208.149 108.057 210.945C106.259 212.404 104.322 214.14 102.271 215.979C97.997 219.811 93.5768 223.774 90.4279 225.108C86.2636 226.871 58.4666 228.357 57.2852 228.419C57.1277 228.43 56.987 228.304 56.9784 228.145C56.9699 227.984 57.0935 227.848 57.2545 227.839C57.5425 227.824 86.1291 226.298 90.1997 224.574C93.2588 223.278 97.642 219.348 101.881 215.548C103.937 213.704 105.879 211.963 107.688 210.495C111.419 207.468 114.576 208.023 116.146 209.417C117.585 210.697 118.243 213.22 116.466 215.974C114.112 219.623 111.938 222.186 110.733 223.508C114.288 222.005 124.192 217.908 128.738 216.917C132.248 216.152 135.035 216.536 136.587 217.999C137.634 218.985 138.04 220.41 137.76 222.118C137.119 226.04 125.187 230.521 118.776 232.929C118.139 233.168 117.574 233.38 117.103 233.561C117.069 233.575 117.033 233.581 116.998 233.581" fill="#2E2E2E"></path> <path fill-rule="evenodd" clip-rule="evenodd" d="M59.326 260.975C57.9354 260.975 56.6649 260.957 55.5057 260.927C45.2061 260.66 41.4456 259.41 41.2905 259.356L41.4799 258.808C41.6299 258.859 57.0988 263.824 109.308 255.806C126.018 253.239 137.255 249.132 142.707 243.597C143.88 242.407 144.011 239.732 142.988 237.873C142.485 236.958 141.266 235.5 138.763 236.025L138.644 235.457C140.739 235.02 142.511 235.798 143.499 237.594C144.653 239.69 144.481 242.626 143.123 244.004C137.581 249.63 126.233 253.793 109.397 256.379C85.3724 260.069 69.3041 260.974 59.326 260.975" fill="#2E2E2E"></path> <path fill-rule="evenodd" clip-rule="evenodd" d="M194.018 231.519C190.072 231.519 185.999 230.085 183.616 228.165C179.988 225.329 168.095 213.241 167.976 213.119L168.393 212.713C168.512 212.835 180.378 224.896 183.979 227.711C188.083 231.018 197.315 232.645 201.665 228.126C209.298 220.194 219.947 186.716 223.956 174.113C224.412 172.681 224.785 171.507 225.064 170.654C227.815 162.228 227.652 155.243 227.031 150.867C226.359 146.124 225.017 143.338 225.004 143.31L225.528 143.056C225.585 143.171 226.917 145.933 227.605 150.758C228.239 155.201 228.408 162.289 225.618 170.834C225.34 171.685 224.967 172.858 224.512 174.288C220.492 186.926 209.813 220.498 202.086 228.527C200.028 230.667 197.06 231.519 194.018 231.519" fill="#2E2E2E"></path> <path fill-rule="evenodd" clip-rule="evenodd" d="M134.688 225.677C132.245 229.128 124.322 232.308 120.651 233.544C119.411 233.962 118.066 233.946 116.834 233.506L134.032 225.874L134.688 225.677Z" fill="#2E2E2E"></path> <path fill-rule="evenodd" clip-rule="evenodd" d="M138.712 235.556C136.273 239.003 128.44 241.874 124.762 243.113C123.517 243.533 122.167 243.523 120.929 243.081L138.712 235.556Z" fill="#2E2E2E"></path> </g> <defs> <clipPath id="clip0_7930_188401"> <rect width="592" height="472" fill="white"></rect> </clipPath> </defs>
</svg>