<svg xmlns="http://www.w3.org/2000/svg" fill="none" viewBox="-160.3 -7.8 459.37 563.07">   <path fill="#887DFF" fill-rule="evenodd" d="m130.59 547.99 57.165-60.739L126.62 511.6l46.373-60.109-38.021 27.505-2.704-3.737 63.844-46.185-55.555 72.011 64.803-25.809-71.411 75.875-3.359-3.161Z" clip-rule="evenodd"></path>   <path fill="#4D41CB" fill-rule="evenodd" d="m57.23 395.924-.277-180.531-217.234 61.148.277 180.532L57.23 395.924Z" clip-rule="evenodd"></path>   <mask id="a" width="219" height="243" x="-161" y="215" maskUnits="userSpaceOnUse" style="mask-type:luminance">     <path fill="#fff" fill-rule="evenodd" d="m57.23 395.924-.277-180.531-217.234 61.148.277 180.532L57.23 395.924Z" clip-rule="evenodd"></path>   </mask>   <g mask="url(#a)">     <path fill="#2D2763" fill-rule="evenodd" d="M-2.58 309.731a22.079 22.079 0 0 0 7.552 4.831c.33.125.664.243 1 .352a20.121 20.121 0 0 1-1.93-1.96c-6.503-7.582-6.332-18.922.671-26.105s18.336-7.641 26.08-1.333a20.42 20.42 0 0 1 2.008 1.879 21.44 21.44 0 0 0-1.11-2.589 22.039 22.039 0 0 0-4.288-5.827c-8.621-8.405-22.321-8.334-30.6.158-8.28 8.492-8.003 22.189.618 30.594Zm.197-29.801c-7.847 8.049-7.585 21.032.586 28.998a21.02 21.02 0 0 0 3.453 2.728c-5.272-7.915-4.568-18.616 2.243-25.602 6.81-6.985 17.49-7.961 25.537-2.891a21.073 21.073 0 0 0-2.815-3.383c-8.171-7.967-21.157-7.899-29.004.15Zm55.093-41.177a5.75 5.75 0 0 1-4.387-4.277 6.876 6.876 0 0 0-5.244-5.113l-.21 1.074a5.75 5.75 0 0 1 4.387 4.277 6.874 6.874 0 0 0 5.243 5.112 5.754 5.754 0 0 1 4.388 4.278 6.876 6.876 0 0 0 5.243 5.112 5.75 5.75 0 0 1 4.388 4.277l1.067-.238a6.876 6.876 0 0 0-5.244-5.112 5.754 5.754 0 0 1-4.387-4.278 6.876 6.876 0 0 0-5.244-5.112Zm14.076 4.83a5.75 5.75 0 0 1-4.387-4.277 6.872 6.872 0 0 0-5.244-5.112 5.753 5.753 0 0 1-4.387-4.278 6.874 6.874 0 0 0-5.244-5.112l-.21 1.073a5.753 5.753 0 0 1 4.386 4.278 6.876 6.876 0 0 0 5.244 5.112 5.75 5.75 0 0 1 4.387 4.277 6.876 6.876 0 0 0 5.244 5.113 5.75 5.75 0 0 1 4.387 4.277l1.068-.238a6.875 6.875 0 0 0-5.244-5.113ZM39.493 376.874a5.751 5.751 0 0 1 4.387 4.277 6.874 6.874 0 0 0 5.244 5.112 5.752 5.752 0 0 1 4.387 4.278 6.876 6.876 0 0 0 5.243 5.112l.211-1.073a5.753 5.753 0 0 1-4.387-4.277 6.876 6.876 0 0 0-5.244-5.113 5.752 5.752 0 0 1-4.387-4.277 6.875 6.875 0 0 0-5.243-5.112 5.753 5.753 0 0 1-4.388-4.278l-1.067.238a6.876 6.876 0 0 0 5.244 5.113Zm14.075 4.83a5.753 5.753 0 0 1 4.388 4.277 6.877 6.877 0 0 0 5.243 5.113l.211-1.074a5.752 5.752 0 0 1-4.387-4.277 6.875 6.875 0 0 0-5.243-5.112 5.753 5.753 0 0 1-4.388-4.278 6.876 6.876 0 0 0-5.243-5.112 5.752 5.752 0 0 1-4.387-4.277l-1.069.238a6.878 6.878 0 0 0 5.245 5.113 5.751 5.751 0 0 1 4.387 4.277 6.876 6.876 0 0 0 5.243 5.112Zm-76.331 48.631 25.948 25.297 25.297-25.947-25.947-25.297-25.298 25.947Zm1.6-.02 5.337-5.475 5.476 5.338-5.338 5.475-5.475-5.338Zm11.622.652-5.338 5.475 5.475 5.337 5.338-5.475-5.475-5.337Zm.945 11.603 5.338-5.475 5.475 5.338-5.338 5.475-5.475-5.338Zm11.624.651-5.338 5.475 5.475 5.338 5.338-5.475-5.475-5.338Zm6.264 4.529-5.476-5.338 5.339-5.476 5.475 5.338-5.338 5.476Zm.651-11.623 5.475 5.338 5.338-5.475-5.475-5.338-5.338 5.475Zm11.602-.946-5.475-5.338 5.338-5.475 5.475 5.338-5.338 5.475Zm-6.285-6.128 5.338-5.475-5.475-5.337-5.337 5.475 5.474 5.337Zm-.946-11.601-5.338 5.475-5.475-5.338 5.338-5.475 5.475 5.338Zm-11.622-.653 5.338-5.475-5.475-5.338-5.338 5.475 5.475 5.338Zm-6.264-4.528 5.475 5.338-5.338 5.475-5.475-5.338 5.338-5.475Zm-.651 11.623-5.476-5.338-5.338 5.475 5.475 5.338 5.339-5.475Zm-4.53 6.264 5.339-5.475 5.475 5.338-5.338 5.475-5.475-5.338Zm11.623.651-5.338 5.475 5.475 5.338 5.338-5.475-5.475-5.338Zm6.264 4.529L3.659 430l5.338-5.475 5.475 5.338-5.338 5.475Zm-6.285-6.128 5.338-5.474-5.475-5.338-5.338 5.475 5.475 5.337Z" clip-rule="evenodd"></path>   </g>   <path fill="#887DFF" fill-rule="evenodd" d="m242.807 555.263-35.426-18.129.525-1.027 34.4 17.605 55.726-108.893 1.026.526-56.251 109.918Z" clip-rule="evenodd"></path>   <path fill="#5C53F3" fill-rule="evenodd" d="m111.505 166.024-135.391-50.349-.532 1.43 135.392 50.349.531-1.43Z" clip-rule="evenodd"></path>   <path fill="#887DFF" fill-rule="evenodd" d="M127.731 26.196c-15.524-7.333-30.379-11.823-30.649-11.903l.911-3.051c1.077.322 14.99 4.53 29.947 11.485 1.113-16 4.013-29.485 4.24-30.517l3.108.68c-.057.257-3.149 14.645-4.205 31.334 12.409 6.05 24.97 13.916 31.059 22.96 4.411 6.553 4.976 13.763 1.547 19.781-3.299 5.792-9.847 9.437-16.295 9.065-3.861-.22-10.978-2.093-15.257-12.128-4.386-10.28-5.079-24.58-4.406-37.706Zm7.331 36.458c2.673 6.267 7.118 9.89 12.513 10.2 2.632.151 5.288-.522 7.626-1.827 2.342-1.308 4.363-3.25 5.722-5.638 1.649-2.895 3.659-8.881-1.422-16.428-5.501-8.172-16.978-15.467-28.608-21.235-.548 12.393.18 25.575 4.169 34.928Z" clip-rule="evenodd"></path> </svg>